<?xml version="1.0" encoding="UTF-8" standalone="no"?><!-- Generator: Gravit.io --><svg xmlns="http://www.w3.org/2000/svg" xmlns:xlink="http://www.w3.org/1999/xlink" style="isolation:isolate" viewBox="699.813 637 573.568 469" width="573.568pt" height="469pt"><defs><clipPath id="_clipPath_17pDwfo7bInKgj9AhZgCqFmkAgPcUfAM"><rect x="699.813" y="637" width="573.568" height="469"/></clipPath></defs><g clip-path="url(#_clipPath_17pDwfo7bInKgj9AhZgCqFmkAgPcUfAM)"><path d=" M 973.369 637 L 968.977 696.118 Q 939.55 701.749 928.569 706.977 Q 917.589 712.205 908.366 717.031 Q 903.39 721.597 899.225 725.074 C 895.876 727.872 891.163 732.012 888.601 735.531 Q 881.574 745.183 878.939 749.607 Q 871.472 760.867 869.715 773.737 Q 867.958 786.606 867.08 796.66 L 839.849 806.312 Q 839.849 806.312 839.849 792.236 Q 839.849 778.16 843.362 764.487 Q 844.241 756.041 851.707 741.563 Q 859.174 727.085 863.566 723.466 Q 864.445 720.651 873.668 711.401 Q 882.891 702.151 900.021 690.488 Q 901.778 688.477 913.636 683.651 Q 925.495 678.825 946.577 673.597 L 973.369 637 Z " fill="rgb(0,217,90)"/><path d=" M 1165 800.948 L 1104.935 796.625 Q 1099.215 767.661 1093.903 756.854 Q 1088.591 746.046 1083.688 736.968 Q 1079.049 732.071 1075.516 727.972 C 1072.674 724.675 1068.467 720.037 1064.892 717.515 Q 1055.085 710.599 1050.591 708.005 Q 1039.15 700.656 1026.075 698.927 Q 1012.999 697.197 1002.784 696.333 L 992.978 669.531 Q 992.978 669.531 1007.279 669.531 Q 1021.58 669.531 1035.472 672.989 Q 1044.053 673.854 1058.763 681.203 Q 1073.473 688.552 1077.15 692.875 Q 1080.01 693.739 1089.408 702.817 Q 1098.806 711.895 1110.656 728.755 Q 1112.699 730.484 1117.602 742.156 Q 1122.505 753.828 1127.817 774.578 L 1165 800.948 Z " fill="rgb(0,217,90)"/><path d=" M 801.689 827.261 L 866.253 831.283 Q 872.402 858.228 878.112 868.282 Q 883.822 878.336 889.092 886.782 Q 894.079 891.338 897.876 895.151 C 900.931 898.218 905.453 902.533 909.296 904.879 Q 919.837 911.314 924.668 913.727 Q 936.966 920.564 951.021 922.172 Q 965.076 923.781 976.056 924.585 L 986.597 949.52 Q 986.597 949.52 971.225 949.52 Q 955.852 949.52 940.919 946.302 Q 931.696 945.498 915.884 938.661 Q 900.073 931.824 896.12 927.803 Q 893.045 926.998 882.943 918.553 Q 872.841 910.107 860.104 894.423 Q 857.908 892.814 852.638 881.956 Q 847.367 871.097 841.657 851.793 L 801.689 827.261 Z " fill="rgb(0,217,90)"/><path d=" M 1002.626 985 L 1007.018 925.882 Q 1036.445 920.251 1047.426 915.023 Q 1058.406 909.795 1067.629 904.969 Q 1072.605 900.403 1076.77 896.926 C 1080.119 894.128 1084.832 889.988 1087.394 886.469 Q 1094.421 876.817 1097.057 872.393 Q 1104.523 861.133 1106.28 848.263 Q 1108.037 835.394 1108.915 825.34 L 1136.146 815.688 Q 1136.146 815.688 1136.146 829.764 Q 1136.146 843.84 1132.633 857.513 Q 1131.754 865.959 1124.288 880.437 Q 1116.821 894.915 1112.429 898.534 Q 1111.551 901.349 1102.327 910.599 Q 1093.104 919.849 1075.974 931.512 Q 1074.217 933.523 1062.359 938.349 Q 1050.5 943.175 1029.418 948.403 L 1002.626 985 Z " fill="rgb(0,217,90)"/><path d=" M 1046.577 760.298 L 966.45 833.667 L 905.578 810.917 L 1046.577 760.298 Z " fill="rgb(0,217,90)"/><path d=" M 1046.138 759.896 L 966.011 833.265 L 990.856 889.002 L 1046.138 759.896 Z " fill="rgb(5,157,68)"/><g clip-path="url(#_clipPath_CFwzdhvHaTtmIwYDSjoYtC1B4AM6cBSt)"><text transform="matrix(1,0,0,1,778.561,1061.696)" style="font-family:'Montserrat';font-weight:700;font-size:72px;font-style:normal;fill:#00d95a;stroke:none;">SPOTI</text><text transform="matrix(1,0,0,1,1005.361,1061.696)" style="font-family:'Montserrat';font-weight:700;font-size:72px;font-style:normal;fill:#ffffff;stroke:none;">FIND</text></g><defs><clipPath id="_clipPath_CFwzdhvHaTtmIwYDSjoYtC1B4AM6cBSt"><rect x="0" y="0" width="573.568" height="114" transform="matrix(1,0,0,1,699.813,992)"/></clipPath></defs></g></svg>