<?xml version="1.0" encoding="UTF-8" standalone="no"?><!-- Generator: Gravit.io --><svg xmlns="http://www.w3.org/2000/svg" xmlns:xlink="http://www.w3.org/1999/xlink" style="isolation:isolate" viewBox="667 498 788.331 602" width="788.331pt" height="602pt"><defs><clipPath id="_clipPath_HjepKMmRvo490PqLaqfRyPVfGoil5z4H"><rect x="667" y="498" width="788.331" height="602"/></clipPath></defs><g clip-path="url(#_clipPath_HjepKMmRvo490PqLaqfRyPVfGoil5z4H)"><path d=" M 1038.157 498 L 1032.108 580.732 Q 991.575 588.611 976.451 595.928 Q 961.327 603.244 948.623 609.998 Q 941.769 616.388 936.033 621.254 C 931.419 625.168 924.928 630.963 921.4 635.886 Q 911.72 649.394 908.091 655.585 Q 897.806 671.343 895.386 689.353 Q 892.967 707.362 891.757 721.432 L 854.249 734.94 Q 854.249 734.94 854.249 715.242 Q 854.249 695.543 859.089 676.408 Q 860.299 664.589 870.583 644.329 Q 880.867 624.068 886.917 619.002 Q 888.127 615.063 900.831 602.118 Q 913.535 589.174 937.129 572.853 Q 939.549 570.039 955.883 563.285 Q 972.216 556.531 1001.255 549.215 L 1038.157 498 Z " fill="rgb(0,217,90)"/><path d=" M 1302.105 727.432 L 1219.373 721.383 Q 1211.494 680.85 1204.177 665.726 Q 1196.861 650.602 1190.107 637.898 Q 1183.717 631.044 1178.851 625.308 C 1174.937 620.695 1169.142 614.204 1164.219 610.675 Q 1150.711 600.996 1144.52 597.366 Q 1128.762 587.082 1110.752 584.662 Q 1092.743 582.242 1078.673 581.032 L 1065.165 543.524 Q 1065.165 543.524 1084.863 543.524 Q 1104.562 543.524 1123.697 548.364 Q 1135.516 549.574 1155.776 559.858 Q 1176.037 570.143 1181.103 576.192 Q 1185.042 577.402 1197.987 590.106 Q 1210.931 602.811 1227.252 626.404 Q 1230.066 628.824 1236.82 645.158 Q 1243.574 661.492 1250.89 690.53 L 1302.105 727.432 Z " fill="rgb(0,217,90)"/><path d=" M 804.689 750.256 L 893.618 755.884 Q 902.088 793.592 909.952 807.662 Q 917.817 821.732 925.076 833.551 Q 931.945 839.927 937.175 845.263 C 941.383 849.556 947.612 855.594 952.904 858.877 Q 967.423 867.882 974.078 871.258 Q 991.017 880.826 1010.376 883.077 Q 1029.734 885.329 1044.858 886.454 L 1059.377 921.348 Q 1059.377 921.348 1038.204 921.348 Q 1017.03 921.348 996.461 916.845 Q 983.757 915.72 961.979 906.152 Q 940.2 896.585 934.756 890.957 Q 930.521 889.831 916.607 878.012 Q 902.693 866.193 885.149 844.244 Q 882.124 841.993 874.864 826.797 Q 867.605 811.601 859.74 784.587 L 804.689 750.256 Z " fill="rgb(0,217,90)"/><path d=" M 1078.455 971 L 1084.504 888.268 Q 1125.037 880.389 1140.161 873.072 Q 1155.285 865.756 1167.989 859.002 Q 1174.843 852.612 1180.579 847.746 C 1185.193 843.832 1191.684 838.037 1195.212 833.114 Q 1204.891 819.606 1208.521 813.415 Q 1218.806 797.657 1221.225 779.647 Q 1223.645 761.638 1224.855 747.568 L 1262.363 734.06 Q 1262.363 734.06 1262.363 753.758 Q 1262.363 773.457 1257.523 792.592 Q 1256.313 804.411 1246.029 824.671 Q 1235.744 844.932 1229.695 849.998 Q 1228.485 853.937 1215.781 866.882 Q 1203.077 879.826 1179.483 896.147 Q 1177.063 898.961 1160.729 905.715 Q 1144.395 912.469 1115.357 919.785 L 1078.455 971 Z " fill="rgb(0,217,90)"/><path d=" M 1137.992 657.547 L 1027.627 760.221 L 943.783 728.384 L 1137.992 657.547 Z " fill="rgb(0,217,90)"/><path d=" M 1137.387 656.984 L 1027.022 759.658 L 1061.243 837.658 L 1137.387 656.984 Z " fill="rgb(0,217,90)"/><g clip-path="url(#_clipPath_jmWloRKJqGYHfvasUQJft1KPr4MEjQW6)"><text transform="matrix(1,0,0,1,853.129,1055.696)" style="font-family:'Montserrat';font-weight:700;font-size:72px;font-style:normal;fill:#00d95a;stroke:none;">SPOTI</text><text transform="matrix(1,0,0,1,1079.929,1055.696)" style="font-family:'Montserrat';font-weight:700;font-size:72px;font-style:normal;fill:#ffffff;stroke:none;">FIND</text></g><defs><clipPath id="_clipPath_jmWloRKJqGYHfvasUQJft1KPr4MEjQW6"><rect x="0" y="0" width="788.331" height="114" transform="matrix(1,0,0,1,667,986)"/></clipPath></defs></g></svg>